<mxfile host="app.diagrams.net" modified="2022-03-09T03:49:24.084Z" agent="5.0 (Windows NT 10.0; Win64; x64) AppleWebKit/537.36 (KHTML, like Gecko) Chrome/99.0.4844.51 Safari/537.36" etag="9FJhn4XetgNqDY7BM67b" version="16.6.5" type="github">
  <diagram id="AqMoiznXCZGiWsd2ppC3" name="Page-1">
    <mxGraphModel dx="1038" dy="579" grid="1" gridSize="10" guides="1" tooltips="1" connect="1" arrows="1" fold="1" page="1" pageScale="1" pageWidth="1100" pageHeight="850" math="0" shadow="0">
      <root>
        <mxCell id="0" />
        <mxCell id="1" parent="0" />
        <mxCell id="n_7fIg3I3LmvqeybkAJg-1" value="DataScience" style="ellipse;whiteSpace=wrap;html=1;aspect=fixed;" vertex="1" parent="1">
          <mxGeometry x="445" y="230" width="110" height="110" as="geometry" />
        </mxCell>
        <mxCell id="n_7fIg3I3LmvqeybkAJg-11" style="edgeStyle=orthogonalEdgeStyle;curved=1;rounded=0;orthogonalLoop=1;jettySize=auto;html=1;" edge="1" parent="1" source="n_7fIg3I3LmvqeybkAJg-2" target="n_7fIg3I3LmvqeybkAJg-3">
          <mxGeometry relative="1" as="geometry" />
        </mxCell>
        <mxCell id="n_7fIg3I3LmvqeybkAJg-2" value="&lt;div&gt;Problem&lt;/div&gt;&lt;div&gt;definition&lt;/div&gt;" style="ellipse;whiteSpace=wrap;html=1;aspect=fixed;" vertex="1" parent="1">
          <mxGeometry x="200" y="80" width="80" height="80" as="geometry" />
        </mxCell>
        <mxCell id="n_7fIg3I3LmvqeybkAJg-10" style="edgeStyle=orthogonalEdgeStyle;rounded=0;orthogonalLoop=1;jettySize=auto;html=1;curved=1;" edge="1" parent="1" source="n_7fIg3I3LmvqeybkAJg-3" target="n_7fIg3I3LmvqeybkAJg-4">
          <mxGeometry relative="1" as="geometry" />
        </mxCell>
        <mxCell id="n_7fIg3I3LmvqeybkAJg-3" value="&lt;div&gt;Data&lt;/div&gt;&lt;div&gt;gathering&lt;/div&gt;" style="ellipse;whiteSpace=wrap;html=1;aspect=fixed;" vertex="1" parent="1">
          <mxGeometry x="440" y="80" width="80" height="80" as="geometry" />
        </mxCell>
        <mxCell id="n_7fIg3I3LmvqeybkAJg-12" style="edgeStyle=orthogonalEdgeStyle;curved=1;rounded=0;orthogonalLoop=1;jettySize=auto;html=1;" edge="1" parent="1" source="n_7fIg3I3LmvqeybkAJg-4" target="n_7fIg3I3LmvqeybkAJg-5">
          <mxGeometry relative="1" as="geometry" />
        </mxCell>
        <mxCell id="n_7fIg3I3LmvqeybkAJg-4" value="&lt;div&gt;Data&lt;/div&gt;&lt;div&gt;cleaning&lt;/div&gt;" style="ellipse;whiteSpace=wrap;html=1;aspect=fixed;" vertex="1" parent="1">
          <mxGeometry x="630" y="80" width="80" height="80" as="geometry" />
        </mxCell>
        <mxCell id="n_7fIg3I3LmvqeybkAJg-13" style="edgeStyle=orthogonalEdgeStyle;curved=1;rounded=0;orthogonalLoop=1;jettySize=auto;html=1;" edge="1" parent="1" source="n_7fIg3I3LmvqeybkAJg-5" target="n_7fIg3I3LmvqeybkAJg-6">
          <mxGeometry relative="1" as="geometry" />
        </mxCell>
        <mxCell id="n_7fIg3I3LmvqeybkAJg-5" value="&lt;div&gt;Exploratory&lt;/div&gt;&lt;div&gt;analysis&lt;/div&gt;" style="ellipse;whiteSpace=wrap;html=1;aspect=fixed;" vertex="1" parent="1">
          <mxGeometry x="720" y="190" width="80" height="80" as="geometry" />
        </mxCell>
        <mxCell id="n_7fIg3I3LmvqeybkAJg-14" style="edgeStyle=orthogonalEdgeStyle;curved=1;rounded=0;orthogonalLoop=1;jettySize=auto;html=1;" edge="1" parent="1" source="n_7fIg3I3LmvqeybkAJg-6" target="n_7fIg3I3LmvqeybkAJg-7">
          <mxGeometry relative="1" as="geometry" />
        </mxCell>
        <mxCell id="n_7fIg3I3LmvqeybkAJg-6" value="&lt;div&gt;Hypothesis&lt;/div&gt;&lt;div&gt;formulation &amp;amp;&lt;/div&gt;&lt;div&gt;testing&lt;/div&gt;" style="ellipse;whiteSpace=wrap;html=1;aspect=fixed;" vertex="1" parent="1">
          <mxGeometry x="720" y="425" width="80" height="80" as="geometry" />
        </mxCell>
        <mxCell id="n_7fIg3I3LmvqeybkAJg-15" style="edgeStyle=orthogonalEdgeStyle;curved=1;rounded=0;orthogonalLoop=1;jettySize=auto;html=1;" edge="1" parent="1" source="n_7fIg3I3LmvqeybkAJg-7" target="n_7fIg3I3LmvqeybkAJg-8">
          <mxGeometry relative="1" as="geometry" />
        </mxCell>
        <mxCell id="n_7fIg3I3LmvqeybkAJg-7" value="&lt;div&gt;Model&lt;/div&gt;&lt;div&gt;building &amp;amp;&lt;/div&gt;&lt;div&gt;testing&lt;/div&gt;" style="ellipse;whiteSpace=wrap;html=1;aspect=fixed;" vertex="1" parent="1">
          <mxGeometry x="460" y="425" width="80" height="80" as="geometry" />
        </mxCell>
        <mxCell id="n_7fIg3I3LmvqeybkAJg-16" style="edgeStyle=orthogonalEdgeStyle;curved=1;rounded=0;orthogonalLoop=1;jettySize=auto;html=1;" edge="1" parent="1" source="n_7fIg3I3LmvqeybkAJg-8" target="n_7fIg3I3LmvqeybkAJg-2">
          <mxGeometry relative="1" as="geometry" />
        </mxCell>
        <mxCell id="n_7fIg3I3LmvqeybkAJg-8" value="&lt;div&gt;Model&lt;/div&gt;&lt;div&gt;deployment &amp;amp;&lt;/div&gt;&lt;div&gt;monitoring&lt;/div&gt;" style="ellipse;whiteSpace=wrap;html=1;aspect=fixed;" vertex="1" parent="1">
          <mxGeometry x="200" y="425" width="80" height="80" as="geometry" />
        </mxCell>
      </root>
    </mxGraphModel>
  </diagram>
</mxfile>
